<svg width="552" height="579" viewBox="0 0 552 579" fill="none" xmlns="http://www.w3.org/2000/svg">
<path d="M229.813 24.7871H69.813C57.6627 24.7871 47.813 34.6368 47.813 46.7871V425.787C47.813 437.937 57.6627 447.787 69.813 447.787H229.813C241.963 447.787 251.813 437.937 251.813 425.787V46.7871C251.813 34.6368 241.963 24.7871 229.813 24.7871Z" fill="url(#paint0_linear_228_45)"/>
<path d="M104.813 247.347V222.069H114.129C115.863 222.069 117.361 222.336 118.625 222.869C119.889 223.404 120.864 224.163 121.55 225.149C122.236 226.133 122.58 227.29 122.58 228.619C122.58 229.829 122.314 230.892 121.785 231.806C121.255 232.72 120.479 233.466 119.545 233.96C120.845 234.458 121.857 235.247 122.579 236.327C123.301 237.407 123.662 238.683 123.662 240.155C123.662 241.626 123.277 242.895 122.507 243.964C121.737 245.032 120.653 245.863 119.257 246.456C117.861 247.049 116.212 247.346 114.31 247.346H104.813V247.347ZM110.013 226.447V232.251H113.552C114.732 232.251 115.64 232.008 116.278 231.521C116.916 231.034 117.235 230.316 117.235 229.367C117.235 228.417 116.915 227.694 116.278 227.195C115.64 226.697 114.731 226.448 113.552 226.448H110.012L110.013 226.447ZM110.013 242.967H114.057C115.405 242.967 116.447 242.682 117.181 242.113C117.915 241.543 118.282 240.724 118.282 239.656C118.282 238.588 117.915 237.769 117.181 237.2C116.446 236.63 115.405 236.345 114.057 236.345H110.013V242.967ZM126.876 247.347V220.787H131.932V247.347H126.876ZM145.148 247.88C143.728 247.88 142.416 247.631 141.212 247.133C140.037 246.654 138.969 245.946 138.07 245.05C137.173 244.15 136.467 243.078 135.994 241.899C135.5 240.689 135.254 239.371 135.254 237.947C135.254 236.523 135.506 235.212 136.012 234.013C136.504 232.835 137.221 231.765 138.124 230.863C139.032 229.957 140.113 229.243 141.302 228.762C142.518 228.263 143.848 228.014 145.292 228.014C146.712 228.014 148.025 228.264 149.228 228.762C150.403 229.241 151.471 229.949 152.37 230.845C153.264 231.74 153.97 232.806 154.446 233.978C154.94 235.176 155.186 236.488 155.186 237.912C155.186 239.336 154.934 240.653 154.428 241.863C153.94 243.048 153.222 244.125 152.316 245.032C151.408 245.937 150.327 246.652 149.138 247.132C147.922 247.631 146.592 247.88 145.148 247.88V247.88ZM145.22 243.394C146.135 243.394 146.953 243.157 147.676 242.682C148.398 242.208 148.969 241.561 149.391 240.742C149.812 239.923 150.023 238.992 150.023 237.947C150.023 236.903 149.812 235.971 149.391 235.152C148.969 234.334 148.398 233.687 147.676 233.212C146.953 232.737 146.135 232.5 145.22 232.5C144.305 232.5 143.487 232.737 142.765 233.212C142.042 233.687 141.471 234.334 141.049 235.152C140.629 235.972 140.417 236.902 140.417 237.947C140.417 238.992 140.628 239.923 141.049 240.742C141.471 241.561 142.042 242.208 142.765 242.682C143.487 243.157 144.305 243.394 145.22 243.394ZM166.344 246.812C165.181 246.821 164.029 246.578 162.968 246.1C161.934 245.635 161.006 244.962 160.242 244.124C159.459 243.262 158.846 242.259 158.436 241.169C158.003 240.042 157.786 238.825 157.786 237.52C157.786 236.167 158.009 234.915 158.454 233.764C158.877 232.648 159.515 231.626 160.332 230.756C161.13 229.907 162.087 229.224 163.149 228.744C164.219 228.258 165.381 228.014 166.633 228.014C167.861 228.014 168.968 228.258 169.955 228.744C170.941 229.229 171.786 229.958 172.411 230.862L172.519 228.548H177.177V245.103C177.177 246.551 176.943 247.868 176.473 249.055C176.028 250.205 175.345 251.249 174.469 252.117C173.587 252.981 172.536 253.654 171.382 254.093C170.19 254.556 168.872 254.787 167.428 254.787C166.008 254.787 164.731 254.567 163.6 254.128C162.505 253.712 161.5 253.09 160.639 252.295C159.803 251.521 159.128 250.589 158.653 249.553L163.492 248.379C163.908 249.051 164.485 249.608 165.171 249.999C165.857 250.39 166.633 250.586 167.5 250.586C168.439 250.586 169.251 250.378 169.937 249.963C170.626 249.544 171.183 248.939 171.544 248.218C171.929 247.471 172.122 246.598 172.122 245.602V244.071C171.468 244.928 170.62 245.617 169.648 246.082C168.649 246.569 167.548 246.812 166.344 246.812V246.812ZM167.572 242.397C168.462 242.397 169.252 242.177 169.937 241.739C170.627 241.295 171.193 240.683 171.58 239.959C171.99 239.211 172.194 238.363 172.194 237.413C172.194 236.463 171.99 235.615 171.58 234.868C171.193 234.144 170.627 233.532 169.937 233.088C169.251 232.648 168.463 232.428 167.572 232.428C166.682 232.428 165.893 232.648 165.207 233.088C164.517 233.532 163.951 234.144 163.564 234.868C163.154 235.615 162.95 236.464 162.95 237.413C162.95 238.363 163.155 239.211 163.564 239.959C163.974 240.706 164.521 241.299 165.207 241.739C165.893 242.178 166.681 242.397 167.572 242.397ZM181.222 247.347V228.547H185.88L186.06 231.395C186.542 230.399 187.192 229.633 188.01 229.099C188.829 228.565 189.792 228.298 190.9 228.298C191.236 228.298 191.573 228.328 191.91 228.387C192.247 228.447 192.548 228.524 192.813 228.618L192.271 233.532C192.008 233.438 191.736 233.372 191.459 233.336C191.177 233.3 190.894 233.282 190.61 233.282C189.214 233.282 188.143 233.704 187.397 234.546C186.65 235.389 186.277 236.581 186.277 238.124V247.345H181.222V247.347Z" fill="white"/>
<g filter="url(#filter0_d_228_45)">
<path d="M244.255 421.682C244.255 432.269 236.44 441.39 225.857 441.39H74.939C64.355 441.39 55.153 432.269 55.153 421.682V49.847C55.153 39.26 64.355 31.52 74.939 31.52H92.386C96.075 31.52 97.437 31.098 97.661 35.775C97.777 38.205 98.668 40.093 100.096 41.656C101.522 43.19 103.486 44.45 105.742 45.157C107.273 45.637 108.978 46.071 110.603 46.071H190.354C191.98 46.071 193.684 45.537 195.215 45.058C197.473 44.351 199.435 43.171 200.862 41.666C202.29 40.131 203.181 38.322 203.296 35.893C203.519 31.217 204.883 31.52 208.572 31.52H225.857C236.44 31.52 244.255 39.26 244.255 49.847V421.682V421.682ZM138.66 33.338H162.297C163.301 33.338 164.116 33.96 164.116 34.853C164.116 35.746 163.301 36.369 162.297 36.369H138.66C137.655 36.369 136.842 35.746 136.842 34.853C136.842 33.96 137.655 33.338 138.66 33.338V33.338ZM174.723 33.86C174.723 34.5636 174.443 35.2384 173.946 35.736C173.448 36.2335 172.774 36.513 172.07 36.513C171.366 36.513 170.692 36.2335 170.194 35.736C169.697 35.2384 169.417 34.5636 169.417 33.86C169.417 33.1564 169.697 32.4816 170.194 31.984C170.692 31.4865 171.366 31.207 172.07 31.207C172.774 31.207 173.448 31.4865 173.946 31.984C174.443 32.4816 174.723 33.1564 174.723 33.86ZM255.771 118.828V51.042C255.771 33.898 241.878 20 224.739 20H73.961C56.284 20 41.819 34.47 41.819 52.155V76.994C41.3367 76.994 40.8742 77.1855 40.5331 77.5264C40.192 77.8673 40.0003 78.3297 40 78.812V91.545C40 92.0275 40.1916 92.4903 40.5327 92.8316C40.8738 93.1729 41.3365 93.3647 41.819 93.365V108.522C41.3365 108.522 40.8738 108.714 40.5327 109.055C40.1916 109.397 40 109.859 40 110.342V137.626C40.0005 138.108 40.1924 138.57 40.5334 138.911C40.8745 139.252 41.3368 139.444 41.819 139.444V148.539C41.3368 148.539 40.8745 148.731 40.5334 149.072C40.1924 149.413 40.0005 149.875 40 150.357V177.642C40 178.125 40.1916 178.587 40.5327 178.929C40.8738 179.27 41.3365 179.462 41.819 179.462V423.078C41.819 440.818 56.328 455.335 74.062 455.335H224.739C241.806 455.335 255.771 441.365 255.771 424.292V169.152H256.376C256.615 169.152 256.852 169.105 257.072 169.014C257.293 168.922 257.494 168.788 257.663 168.62C257.832 168.451 257.966 168.25 258.057 168.029C258.149 167.809 258.196 167.572 258.196 167.333V120.648C258.196 119.643 257.382 118.828 256.376 118.828H255.771V118.828Z" fill="black"/>
</g>
<path d="M244.255 421.682C244.255 432.269 236.44 441.39 225.857 441.39H74.939C64.355 441.39 55.153 432.269 55.153 421.682V49.847C55.153 39.26 64.355 31.52 74.939 31.52H92.386C96.075 31.52 97.437 31.098 97.661 35.775C97.777 38.205 98.668 40.093 100.096 41.656C101.522 43.19 103.486 44.45 105.742 45.157C107.273 45.637 108.978 46.071 110.603 46.071H190.354C191.98 46.071 193.684 45.537 195.215 45.058C197.473 44.351 199.435 43.171 200.862 41.666C202.29 40.131 203.181 38.322 203.296 35.893C203.519 31.217 204.883 31.52 208.572 31.52H225.857C236.44 31.52 244.255 39.26 244.255 49.847V421.682V421.682ZM138.66 33.338H162.297C163.301 33.338 164.116 33.96 164.116 34.853C164.116 35.746 163.301 36.369 162.297 36.369H138.66C137.655 36.369 136.842 35.746 136.842 34.853C136.842 33.96 137.655 33.338 138.66 33.338V33.338ZM174.723 33.86C174.723 34.5636 174.443 35.2384 173.946 35.736C173.448 36.2335 172.774 36.513 172.07 36.513C171.366 36.513 170.692 36.2335 170.194 35.736C169.697 35.2384 169.417 34.5636 169.417 33.86C169.417 33.1564 169.697 32.4816 170.194 31.984C170.692 31.4865 171.366 31.207 172.07 31.207C172.774 31.207 173.448 31.4865 173.946 31.984C174.443 32.4816 174.723 33.1564 174.723 33.86ZM255.771 118.828V51.042C255.771 33.898 241.878 20 224.739 20H73.961C56.284 20 41.819 34.47 41.819 52.155V76.994C41.3367 76.994 40.8742 77.1855 40.5331 77.5264C40.192 77.8673 40.0003 78.3297 40 78.812V91.545C40 92.0275 40.1916 92.4903 40.5327 92.8316C40.8738 93.1729 41.3365 93.3647 41.819 93.365V108.522C41.3365 108.522 40.8738 108.714 40.5327 109.055C40.1916 109.397 40 109.859 40 110.342V137.626C40.0005 138.108 40.1924 138.57 40.5334 138.911C40.8745 139.252 41.3368 139.444 41.819 139.444V148.539C41.3368 148.539 40.8745 148.731 40.5334 149.072C40.1924 149.413 40.0005 149.875 40 150.357V177.642C40 178.125 40.1916 178.587 40.5327 178.929C40.8738 179.27 41.3365 179.462 41.819 179.462V423.078C41.819 440.818 56.328 455.335 74.062 455.335H224.739C241.806 455.335 255.771 441.365 255.771 424.292V169.152H256.376C256.615 169.152 256.852 169.105 257.072 169.014C257.293 168.922 257.494 168.788 257.663 168.62C257.832 168.451 257.966 168.25 258.057 168.029C258.149 167.809 258.196 167.572 258.196 167.333V120.648C258.196 119.643 257.382 118.828 256.376 118.828H255.771V118.828Z" fill="#1D1D25"/>
<path fill-rule="evenodd" clip-rule="evenodd" d="M162.297 33.337H138.66C137.655 33.337 136.841 33.961 136.841 34.854C136.841 35.746 137.655 36.369 138.661 36.369H162.297C163.302 36.369 164.117 35.746 164.117 34.854C164.117 33.961 163.302 33.337 162.297 33.337V33.337ZM172.071 31.207C171.367 31.2073 170.693 31.4871 170.195 31.9848C169.698 32.4825 169.419 33.1574 169.419 33.861C169.419 34.5647 169.699 35.2393 170.197 35.7367C170.694 36.234 171.369 36.5133 172.073 36.513C172.776 36.5128 173.451 36.233 173.948 35.7353C174.446 35.2376 174.725 34.5627 174.725 33.859C174.725 33.1554 174.445 32.4807 173.947 31.9834C173.449 31.486 172.774 31.2068 172.071 31.207" fill="black"/>
<path d="M482.813 87.7871H322.813C310.663 87.7871 300.813 97.6368 300.813 109.787V488.787C300.813 500.937 310.663 510.787 322.813 510.787H482.813C494.963 510.787 504.813 500.937 504.813 488.787V109.787C504.813 97.6368 494.963 87.7871 482.813 87.7871Z" fill="url(#paint1_linear_228_45)"/>
<path d="M475.148 93.7871H329.813C317.663 93.7871 307.813 103.637 307.813 115.787V486.108C307.813 498.258 317.663 508.108 329.813 508.108H475.148C487.298 508.108 497.148 498.258 497.148 486.108V115.787C497.148 103.637 487.298 93.7871 475.148 93.7871Z" fill="white"/>
<path d="M475.148 93.7871H329.813C317.663 93.7871 307.813 103.637 307.813 115.787V145.056C307.813 157.206 317.663 167.056 329.813 167.056H475.148C487.298 167.056 497.148 157.206 497.148 145.056V115.787C497.148 103.637 487.298 93.7871 475.148 93.7871Z" fill="url(#paint2_linear_228_45)"/>
<g filter="url(#filter1_d_228_45)">
<path d="M481.805 140.018H323.156C320.947 140.018 319.156 141.808 319.156 144.018V194.459C319.156 196.668 320.947 198.459 323.156 198.459H481.805C484.014 198.459 485.805 196.668 485.805 194.459V144.018C485.805 141.808 484.014 140.018 481.805 140.018Z" fill="black"/>
</g>
<path d="M481.805 140.018H323.156C320.947 140.018 319.156 141.808 319.156 144.018V194.459C319.156 196.668 320.947 198.459 323.156 198.459H481.805C484.014 198.459 485.805 196.668 485.805 194.459V144.018C485.805 141.808 484.014 140.018 481.805 140.018Z" fill="white"/>
<g filter="url(#filter2_d_228_45)">
<path d="M481.805 212.414H323.156C320.947 212.414 319.156 214.205 319.156 216.414V266.855C319.156 269.064 320.947 270.855 323.156 270.855H481.805C484.014 270.855 485.805 269.064 485.805 266.855V216.414C485.805 214.205 484.014 212.414 481.805 212.414Z" fill="black"/>
</g>
<path d="M481.805 212.414H323.156C320.947 212.414 319.156 214.205 319.156 216.414V266.855C319.156 269.064 320.947 270.855 323.156 270.855H481.805C484.014 270.855 485.805 269.064 485.805 266.855V216.414C485.805 214.205 484.014 212.414 481.805 212.414Z" fill="white"/>
<g filter="url(#filter3_d_228_45)">
<path d="M481.805 284.812H323.156C320.947 284.812 319.156 286.603 319.156 288.812V339.253C319.156 341.463 320.947 343.253 323.156 343.253H481.805C484.014 343.253 485.805 341.463 485.805 339.253V288.812C485.805 286.603 484.014 284.812 481.805 284.812Z" fill="black"/>
</g>
<path d="M481.805 284.812H323.156C320.947 284.812 319.156 286.603 319.156 288.812V339.253C319.156 341.463 320.947 343.253 323.156 343.253H481.805C484.014 343.253 485.805 341.463 485.805 339.253V288.812C485.805 286.603 484.014 284.812 481.805 284.812Z" fill="white"/>
<g filter="url(#filter4_d_228_45)">
<path d="M481.805 357.211H323.156C320.947 357.211 319.156 359.002 319.156 361.211V411.652C319.156 413.861 320.947 415.652 323.156 415.652H481.805C484.014 415.652 485.805 413.861 485.805 411.652V361.211C485.805 359.002 484.014 357.211 481.805 357.211Z" fill="black"/>
</g>
<path d="M481.805 357.211H323.156C320.947 357.211 319.156 359.002 319.156 361.211V411.652C319.156 413.861 320.947 415.652 323.156 415.652H481.805C484.014 415.652 485.805 413.861 485.805 411.652V361.211C485.805 359.002 484.014 357.211 481.805 357.211Z" fill="white"/>
<g filter="url(#filter5_d_228_45)">
<path d="M481.805 429.607H323.156C320.947 429.607 319.156 431.398 319.156 433.607V484.048C319.156 486.258 320.947 488.048 323.156 488.048H481.805C484.014 488.048 485.805 486.258 485.805 484.048V433.607C485.805 431.398 484.014 429.607 481.805 429.607Z" fill="black"/>
</g>
<path d="M481.805 429.607H323.156C320.947 429.607 319.156 431.398 319.156 433.607V484.048C319.156 486.258 320.947 488.048 323.156 488.048H481.805C484.014 488.048 485.805 486.258 485.805 484.048V433.607C485.805 431.398 484.014 429.607 481.805 429.607Z" fill="white"/>
<path d="M357.813 310.347V285.069H367.129C368.863 285.069 370.361 285.336 371.625 285.869C372.889 286.404 373.864 287.163 374.55 288.149C375.236 289.133 375.58 290.29 375.58 291.619C375.58 292.829 375.314 293.892 374.785 294.806C374.255 295.72 373.479 296.466 372.545 296.96C373.845 297.458 374.857 298.247 375.579 299.327C376.301 300.407 376.662 301.683 376.662 303.155C376.662 304.626 376.277 305.895 375.507 306.964C374.737 308.032 373.653 308.863 372.257 309.456C370.861 310.049 369.212 310.346 367.31 310.346H357.813V310.347ZM363.013 289.447V295.251H366.552C367.732 295.251 368.64 295.008 369.278 294.521C369.916 294.034 370.235 293.316 370.235 292.367C370.235 291.417 369.915 290.694 369.278 290.195C368.64 289.697 367.731 289.448 366.552 289.448H363.012L363.013 289.447ZM363.013 305.967H367.057C368.405 305.967 369.447 305.682 370.181 305.113C370.915 304.543 371.282 303.724 371.282 302.656C371.282 301.588 370.915 300.769 370.181 300.2C369.446 299.63 368.405 299.345 367.057 299.345H363.013V305.967ZM379.876 310.347V283.787H384.932V310.347H379.876ZM398.148 310.88C396.728 310.88 395.416 310.631 394.212 310.133C393.037 309.654 391.969 308.946 391.07 308.05C390.173 307.15 389.467 306.078 388.994 304.899C388.5 303.689 388.254 302.371 388.254 300.947C388.254 299.523 388.506 298.212 389.012 297.013C389.504 295.835 390.221 294.765 391.124 293.863C392.032 292.957 393.113 292.243 394.302 291.762C395.518 291.263 396.848 291.014 398.292 291.014C399.712 291.014 401.025 291.264 402.228 291.762C403.403 292.241 404.471 292.949 405.37 293.845C406.264 294.74 406.97 295.806 407.446 296.978C407.94 298.176 408.186 299.488 408.186 300.912C408.186 302.336 407.934 303.653 407.428 304.863C406.94 306.048 406.222 307.125 405.316 308.032C404.408 308.937 403.327 309.652 402.138 310.132C400.922 310.631 399.592 310.88 398.148 310.88V310.88ZM398.22 306.394C399.135 306.394 399.953 306.157 400.676 305.682C401.398 305.208 401.969 304.561 402.391 303.742C402.812 302.923 403.023 301.992 403.023 300.947C403.023 299.903 402.812 298.971 402.391 298.152C401.969 297.334 401.398 296.687 400.676 296.212C399.953 295.737 399.135 295.5 398.22 295.5C397.305 295.5 396.487 295.737 395.765 296.212C395.042 296.687 394.471 297.334 394.049 298.152C393.629 298.972 393.417 299.902 393.417 300.947C393.417 301.992 393.628 302.923 394.049 303.742C394.471 304.561 395.042 305.208 395.765 305.682C396.487 306.157 397.305 306.394 398.22 306.394ZM419.344 309.812C418.181 309.821 417.029 309.578 415.968 309.1C414.934 308.635 414.006 307.962 413.242 307.124C412.459 306.262 411.846 305.259 411.436 304.169C411.003 303.042 410.786 301.825 410.786 300.52C410.786 299.167 411.009 297.915 411.454 296.764C411.877 295.648 412.515 294.626 413.332 293.756C414.13 292.907 415.087 292.224 416.149 291.744C417.219 291.258 418.381 291.014 419.633 291.014C420.861 291.014 421.968 291.258 422.955 291.744C423.941 292.229 424.786 292.958 425.411 293.862L425.519 291.548H430.177V308.103C430.177 309.551 429.943 310.868 429.473 312.055C429.028 313.205 428.345 314.249 427.469 315.117C426.587 315.981 425.536 316.654 424.382 317.093C423.19 317.556 421.872 317.787 420.428 317.787C419.008 317.787 417.731 317.567 416.6 317.128C415.505 316.712 414.5 316.09 413.639 315.295C412.803 314.521 412.128 313.589 411.653 312.553L416.492 311.379C416.908 312.051 417.485 312.608 418.171 312.999C418.857 313.39 419.633 313.586 420.5 313.586C421.439 313.586 422.251 313.378 422.937 312.963C423.626 312.544 424.183 311.939 424.544 311.218C424.929 310.471 425.122 309.598 425.122 308.602V307.071C424.468 307.928 423.62 308.617 422.648 309.082C421.649 309.569 420.548 309.812 419.344 309.812V309.812ZM420.572 305.397C421.462 305.397 422.252 305.177 422.937 304.739C423.627 304.295 424.193 303.683 424.58 302.959C424.99 302.211 425.194 301.363 425.194 300.413C425.194 299.463 424.99 298.615 424.58 297.868C424.193 297.144 423.627 296.532 422.937 296.088C422.251 295.648 421.463 295.428 420.572 295.428C419.682 295.428 418.893 295.648 418.207 296.088C417.517 296.532 416.951 297.144 416.564 297.868C416.154 298.615 415.95 299.464 415.95 300.413C415.95 301.363 416.155 302.211 416.564 302.959C416.974 303.706 417.521 304.299 418.207 304.739C418.893 305.178 419.681 305.397 420.572 305.397ZM434.222 310.347V291.547H438.88L439.06 294.395C439.542 293.399 440.192 292.633 441.01 292.099C441.829 291.565 442.792 291.298 443.9 291.298C444.236 291.298 444.573 291.328 444.91 291.387C445.247 291.447 445.548 291.524 445.813 291.618L445.271 296.532C445.008 296.438 444.736 296.372 444.459 296.336C444.177 296.3 443.894 296.282 443.61 296.282C442.214 296.282 441.143 296.704 440.397 297.546C439.65 298.389 439.277 299.581 439.277 301.124V310.345H434.222V310.347Z" fill="white"/>
<g filter="url(#filter6_d_228_45)">
<path d="M497.255 484.682C497.255 495.269 489.44 504.39 478.857 504.39H327.939C317.355 504.39 308.153 495.269 308.153 484.682V112.847C308.153 102.26 317.355 94.52 327.939 94.52H345.386C349.075 94.52 350.437 94.098 350.661 98.775C350.777 101.205 351.668 103.093 353.096 104.656C354.522 106.19 356.486 107.45 358.742 108.157C360.273 108.637 361.978 109.071 363.603 109.071H443.354C444.98 109.071 446.684 108.537 448.215 108.058C450.473 107.351 452.435 106.171 453.862 104.666C455.29 103.131 456.181 101.322 456.296 98.893C456.519 94.217 457.883 94.52 461.572 94.52H478.857C489.44 94.52 497.255 102.26 497.255 112.847V484.682V484.682ZM391.66 96.338H415.297C416.301 96.338 417.116 96.96 417.116 97.853C417.116 98.746 416.301 99.369 415.297 99.369H391.66C390.655 99.369 389.842 98.746 389.842 97.853C389.842 96.96 390.655 96.338 391.66 96.338V96.338ZM427.723 96.86C427.723 97.5636 427.443 98.2384 426.946 98.736C426.448 99.2335 425.774 99.513 425.07 99.513C424.366 99.513 423.692 99.2335 423.194 98.736C422.697 98.2384 422.417 97.5636 422.417 96.86C422.417 96.1564 422.697 95.4816 423.194 94.984C423.692 94.4865 424.366 94.207 425.07 94.207C425.774 94.207 426.448 94.4865 426.946 94.984C427.443 95.4816 427.723 96.1564 427.723 96.86ZM508.771 181.828V114.042C508.771 96.898 494.878 83 477.739 83H326.961C309.284 83 294.819 97.47 294.819 115.155V139.994C294.337 139.994 293.874 140.186 293.533 140.526C293.192 140.867 293 141.33 293 141.812V154.545C293 155.028 293.192 155.49 293.533 155.832C293.874 156.173 294.336 156.365 294.819 156.365V171.522C294.336 171.522 293.874 171.714 293.533 172.055C293.192 172.397 293 172.859 293 173.342V200.626C293.001 201.108 293.192 201.57 293.533 201.911C293.874 202.252 294.337 202.444 294.819 202.444V211.539C294.337 211.539 293.874 211.731 293.533 212.072C293.192 212.413 293.001 212.875 293 213.357V240.642C293 241.125 293.192 241.587 293.533 241.929C293.874 242.27 294.336 242.462 294.819 242.462V486.078C294.819 503.818 309.328 518.335 327.062 518.335H477.739C494.806 518.335 508.771 504.365 508.771 487.292V232.152H509.376C509.615 232.152 509.852 232.105 510.072 232.014C510.293 231.922 510.494 231.788 510.663 231.62C510.832 231.451 510.966 231.25 511.057 231.029C511.149 230.809 511.196 230.572 511.196 230.333V183.648C511.196 182.643 510.382 181.828 509.376 181.828H508.771V181.828Z" fill="black"/>
</g>
<path d="M497.255 484.682C497.255 495.269 489.44 504.39 478.857 504.39H327.939C317.355 504.39 308.153 495.269 308.153 484.682V112.847C308.153 102.26 317.355 94.52 327.939 94.52H345.386C349.075 94.52 350.437 94.098 350.661 98.775C350.777 101.205 351.668 103.093 353.096 104.656C354.522 106.19 356.486 107.45 358.742 108.157C360.273 108.637 361.978 109.071 363.603 109.071H443.354C444.98 109.071 446.684 108.537 448.215 108.058C450.473 107.351 452.435 106.171 453.862 104.666C455.29 103.131 456.181 101.322 456.296 98.893C456.519 94.217 457.883 94.52 461.572 94.52H478.857C489.44 94.52 497.255 102.26 497.255 112.847V484.682V484.682ZM391.66 96.338H415.297C416.301 96.338 417.116 96.96 417.116 97.853C417.116 98.746 416.301 99.369 415.297 99.369H391.66C390.655 99.369 389.842 98.746 389.842 97.853C389.842 96.96 390.655 96.338 391.66 96.338V96.338ZM427.723 96.86C427.723 97.5636 427.443 98.2384 426.946 98.736C426.448 99.2335 425.774 99.513 425.07 99.513C424.366 99.513 423.692 99.2335 423.194 98.736C422.697 98.2384 422.417 97.5636 422.417 96.86C422.417 96.1564 422.697 95.4816 423.194 94.984C423.692 94.4865 424.366 94.207 425.07 94.207C425.774 94.207 426.448 94.4865 426.946 94.984C427.443 95.4816 427.723 96.1564 427.723 96.86ZM508.771 181.828V114.042C508.771 96.898 494.878 83 477.739 83H326.961C309.284 83 294.819 97.47 294.819 115.155V139.994C294.337 139.994 293.874 140.186 293.533 140.526C293.192 140.867 293 141.33 293 141.812V154.545C293 155.028 293.192 155.49 293.533 155.832C293.874 156.173 294.336 156.365 294.819 156.365V171.522C294.336 171.522 293.874 171.714 293.533 172.055C293.192 172.397 293 172.859 293 173.342V200.626C293.001 201.108 293.192 201.57 293.533 201.911C293.874 202.252 294.337 202.444 294.819 202.444V211.539C294.337 211.539 293.874 211.731 293.533 212.072C293.192 212.413 293.001 212.875 293 213.357V240.642C293 241.125 293.192 241.587 293.533 241.929C293.874 242.27 294.336 242.462 294.819 242.462V486.078C294.819 503.818 309.328 518.335 327.062 518.335H477.739C494.806 518.335 508.771 504.365 508.771 487.292V232.152H509.376C509.615 232.152 509.852 232.105 510.072 232.014C510.293 231.922 510.494 231.788 510.663 231.62C510.832 231.451 510.966 231.25 511.057 231.029C511.149 230.809 511.196 230.572 511.196 230.333V183.648C511.196 182.643 510.382 181.828 509.376 181.828H508.771V181.828Z" fill="#1D1D25"/>
<path fill-rule="evenodd" clip-rule="evenodd" d="M415.297 96.337H391.66C390.655 96.337 389.841 96.961 389.841 97.854C389.841 98.746 390.655 99.369 391.661 99.369H415.297C416.302 99.369 417.117 98.746 417.117 97.854C417.117 96.961 416.302 96.337 415.297 96.337V96.337ZM425.071 94.207C424.367 94.2073 423.693 94.4871 423.195 94.9848C422.698 95.4825 422.419 96.1574 422.419 96.861C422.419 97.5647 422.699 98.2393 423.197 98.7367C423.694 99.234 424.369 99.5133 425.073 99.513C425.776 99.5128 426.451 99.233 426.948 98.7353C427.446 98.2376 427.725 97.5627 427.725 96.859C427.725 96.1554 427.445 95.4807 426.947 94.9834C426.449 94.486 425.774 94.2068 425.071 94.207" fill="black"/>
<defs>
<filter id="filter0_d_228_45" x="0" y="0" width="298.196" height="515.336" filterUnits="userSpaceOnUse" color-interpolation-filters="sRGB">
<feFlood flood-opacity="0" result="BackgroundImageFix"/>
<feColorMatrix in="SourceAlpha" type="matrix" values="0 0 0 0 0 0 0 0 0 0 0 0 0 0 0 0 0 0 127 0" result="hardAlpha"/>
<feOffset dy="20"/>
<feGaussianBlur stdDeviation="20"/>
<feColorMatrix type="matrix" values="0 0 0 0 0.421822 0 0 0 0 0.554338 0 0 0 0 0.89371 0 0 0 0.243444 0"/>
<feBlend mode="normal" in2="BackgroundImageFix" result="effect1_dropShadow_228_45"/>
<feBlend mode="normal" in="SourceGraphic" in2="effect1_dropShadow_228_45" result="shape"/>
</filter>
<filter id="filter1_d_228_45" x="299.156" y="130.018" width="206.649" height="98.4414" filterUnits="userSpaceOnUse" color-interpolation-filters="sRGB">
<feFlood flood-opacity="0" result="BackgroundImageFix"/>
<feColorMatrix in="SourceAlpha" type="matrix" values="0 0 0 0 0 0 0 0 0 0 0 0 0 0 0 0 0 0 127 0" result="hardAlpha"/>
<feOffset dy="10"/>
<feGaussianBlur stdDeviation="10"/>
<feColorMatrix type="matrix" values="0 0 0 0 0.421822 0 0 0 0 0.554338 0 0 0 0 0.89371 0 0 0 0.243444 0"/>
<feBlend mode="normal" in2="BackgroundImageFix" result="effect1_dropShadow_228_45"/>
<feBlend mode="normal" in="SourceGraphic" in2="effect1_dropShadow_228_45" result="shape"/>
</filter>
<filter id="filter2_d_228_45" x="299.156" y="202.414" width="206.649" height="98.4414" filterUnits="userSpaceOnUse" color-interpolation-filters="sRGB">
<feFlood flood-opacity="0" result="BackgroundImageFix"/>
<feColorMatrix in="SourceAlpha" type="matrix" values="0 0 0 0 0 0 0 0 0 0 0 0 0 0 0 0 0 0 127 0" result="hardAlpha"/>
<feOffset dy="10"/>
<feGaussianBlur stdDeviation="10"/>
<feColorMatrix type="matrix" values="0 0 0 0 0.421822 0 0 0 0 0.554338 0 0 0 0 0.89371 0 0 0 0.243444 0"/>
<feBlend mode="normal" in2="BackgroundImageFix" result="effect1_dropShadow_228_45"/>
<feBlend mode="normal" in="SourceGraphic" in2="effect1_dropShadow_228_45" result="shape"/>
</filter>
<filter id="filter3_d_228_45" x="299.156" y="274.812" width="206.649" height="98.4414" filterUnits="userSpaceOnUse" color-interpolation-filters="sRGB">
<feFlood flood-opacity="0" result="BackgroundImageFix"/>
<feColorMatrix in="SourceAlpha" type="matrix" values="0 0 0 0 0 0 0 0 0 0 0 0 0 0 0 0 0 0 127 0" result="hardAlpha"/>
<feOffset dy="10"/>
<feGaussianBlur stdDeviation="10"/>
<feColorMatrix type="matrix" values="0 0 0 0 0.421822 0 0 0 0 0.554338 0 0 0 0 0.89371 0 0 0 0.243444 0"/>
<feBlend mode="normal" in2="BackgroundImageFix" result="effect1_dropShadow_228_45"/>
<feBlend mode="normal" in="SourceGraphic" in2="effect1_dropShadow_228_45" result="shape"/>
</filter>
<filter id="filter4_d_228_45" x="299.156" y="347.211" width="206.649" height="98.4414" filterUnits="userSpaceOnUse" color-interpolation-filters="sRGB">
<feFlood flood-opacity="0" result="BackgroundImageFix"/>
<feColorMatrix in="SourceAlpha" type="matrix" values="0 0 0 0 0 0 0 0 0 0 0 0 0 0 0 0 0 0 127 0" result="hardAlpha"/>
<feOffset dy="10"/>
<feGaussianBlur stdDeviation="10"/>
<feColorMatrix type="matrix" values="0 0 0 0 0.421822 0 0 0 0 0.554338 0 0 0 0 0.89371 0 0 0 0.243444 0"/>
<feBlend mode="normal" in2="BackgroundImageFix" result="effect1_dropShadow_228_45"/>
<feBlend mode="normal" in="SourceGraphic" in2="effect1_dropShadow_228_45" result="shape"/>
</filter>
<filter id="filter5_d_228_45" x="299.156" y="419.607" width="206.649" height="98.4414" filterUnits="userSpaceOnUse" color-interpolation-filters="sRGB">
<feFlood flood-opacity="0" result="BackgroundImageFix"/>
<feColorMatrix in="SourceAlpha" type="matrix" values="0 0 0 0 0 0 0 0 0 0 0 0 0 0 0 0 0 0 127 0" result="hardAlpha"/>
<feOffset dy="10"/>
<feGaussianBlur stdDeviation="10"/>
<feColorMatrix type="matrix" values="0 0 0 0 0.421822 0 0 0 0 0.554338 0 0 0 0 0.89371 0 0 0 0.243444 0"/>
<feBlend mode="normal" in2="BackgroundImageFix" result="effect1_dropShadow_228_45"/>
<feBlend mode="normal" in="SourceGraphic" in2="effect1_dropShadow_228_45" result="shape"/>
</filter>
<filter id="filter6_d_228_45" x="253" y="63" width="298.196" height="515.336" filterUnits="userSpaceOnUse" color-interpolation-filters="sRGB">
<feFlood flood-opacity="0" result="BackgroundImageFix"/>
<feColorMatrix in="SourceAlpha" type="matrix" values="0 0 0 0 0 0 0 0 0 0 0 0 0 0 0 0 0 0 127 0" result="hardAlpha"/>
<feOffset dy="20"/>
<feGaussianBlur stdDeviation="20"/>
<feColorMatrix type="matrix" values="0 0 0 0 0.421822 0 0 0 0 0.554338 0 0 0 0 0.89371 0 0 0 0.243444 0"/>
<feBlend mode="normal" in2="BackgroundImageFix" result="effect1_dropShadow_228_45"/>
<feBlend mode="normal" in="SourceGraphic" in2="effect1_dropShadow_228_45" result="shape"/>
</filter>
<linearGradient id="paint0_linear_228_45" x1="126.09" y1="24.7871" x2="300.547" y2="386.535" gradientUnits="userSpaceOnUse">
<stop stop-color="#FF8F71"/>
<stop offset="1" stop-color="#FF3E55"/>
</linearGradient>
<linearGradient id="paint1_linear_228_45" x1="379.09" y1="87.7871" x2="553.547" y2="449.535" gradientUnits="userSpaceOnUse">
<stop stop-color="#FF8F71"/>
<stop offset="1" stop-color="#FF3E55"/>
</linearGradient>
<linearGradient id="paint2_linear_228_45" x1="307.813" y1="124.935" x2="476.179" y2="190.092" gradientUnits="userSpaceOnUse">
<stop stop-color="#FF8F71"/>
<stop offset="1" stop-color="#FF3E55"/>
</linearGradient>
</defs>
</svg>
