<svg width="408" height="327" viewBox="0 0 408 327" fill="none" xmlns="http://www.w3.org/2000/svg">
<path opacity="0.08" d="M316 165C316 226.58 266.08 276.5 204.5 276.5C142.92 276.5 93 226.58 93 165C93 103.42 142.92 53.5 204.5 53.5C266.08 53.5 316 103.42 316 165Z" fill="#2D2E40"/>
<path opacity="0.5" d="M329.5 163.5C329.5 232.812 273.312 289 204 289C134.688 289 78.5 232.812 78.5 163.5C78.5 94.1883 134.688 38 204 38C273.312 38 329.5 94.1883 329.5 163.5Z" stroke="#2D2E40"/>
<path opacity="0.25" d="M366.5 163.5C366.5 253.246 293.746 326 204 326C114.254 326 41.5 253.246 41.5 163.5C41.5 73.7537 114.254 1 204 1C293.746 1 366.5 73.7537 366.5 163.5Z" stroke="#2D2E40"/>
<g filter="url(#filter0_d_229_137)">
<path d="M319 75.5H91C84.3726 75.5 79 80.8726 79 87.5V236.5C79 243.127 84.3726 248.5 91 248.5H319C325.627 248.5 331 243.127 331 236.5V87.5C331 80.8726 325.627 75.5 319 75.5Z" fill="#535353"/>
<path d="M320 77.5H90C84.4772 77.5 80 81.9772 80 87.5V237.5C80 243.023 84.4772 247.5 90 247.5H320C325.523 247.5 330 243.023 330 237.5V87.5C330 81.9772 325.523 77.5 320 77.5Z" fill="#1D1D25"/>
<mask id="mask0_229_137" style="mask-type:alpha" maskUnits="userSpaceOnUse" x="87" y="83" width="237" height="159">
<path d="M321 83.5H90C88.3431 83.5 87 84.8431 87 86.5V238.44C87 240.097 88.3431 241.44 90 241.44H321C322.657 241.44 324 240.097 324 238.44V86.5C324 84.8431 322.657 83.5 321 83.5Z" fill="white"/>
</mask>
<g mask="url(#mask0_229_137)">
<path d="M321 83.5H90C88.3431 83.5 87 84.8431 87 86.5V238.44C87 240.097 88.3431 241.44 90 241.44H321C322.657 241.44 324 240.097 324 238.44V86.5C324 84.8431 322.657 83.5 321 83.5Z" fill="url(#paint0_linear_229_137)"/>
<path d="M320.848 111.852H89.8481C88.1913 111.852 86.8481 113.195 86.8481 114.852V238.561C86.8481 240.217 88.1913 241.561 89.8481 241.561H320.848C322.505 241.561 323.848 240.217 323.848 238.561V114.852C323.848 113.195 322.505 111.852 320.848 111.852Z" fill="#F9F6F6"/>
<path d="M167.429 101.115H123.478C121.821 101.115 120.478 102.458 120.478 104.115V218.75C120.478 220.407 121.821 221.75 123.478 221.75H167.429C169.086 221.75 170.429 220.407 170.429 218.75V104.115C170.429 102.458 169.086 101.115 167.429 101.115Z" fill="white"/>
<path d="M287.523 101.115H181.931C180.274 101.115 178.931 102.458 178.931 104.115V218.75C178.931 220.407 180.274 221.75 181.931 221.75H287.523C289.18 221.75 290.523 220.407 290.523 218.75V104.115C290.523 102.458 289.18 101.115 287.523 101.115Z" fill="white"/>
<path d="M282.74 107.52H186.713C185.056 107.52 183.713 108.863 183.713 110.52V132.811C183.713 134.467 185.056 135.811 186.713 135.811H282.74C284.397 135.811 285.74 134.467 285.74 132.811V110.52C285.74 108.863 284.397 107.52 282.74 107.52Z" fill="#E7E7E7"/>
<path d="M211.002 141.684H186.713C185.056 141.684 183.713 143.027 183.713 144.684V166.975C183.713 168.631 185.056 169.975 186.713 169.975H211.002C212.659 169.975 214.002 168.631 214.002 166.975V144.684C214.002 143.027 212.659 141.684 211.002 141.684Z" fill="#E7E7E7"/>
<path d="M282.74 141.684H224.442C222.785 141.684 221.442 143.027 221.442 144.684V166.975C221.442 168.631 222.785 169.975 224.442 169.975H282.74C284.397 169.975 285.74 168.631 285.74 166.975V144.684C285.74 143.027 284.397 141.684 282.74 141.684Z" fill="#E7E7E7"/>
</g>
<g opacity="0.098">
<path opacity="0.098" d="M209.62 68.5H204.5C204.224 68.5 204 68.7239 204 69C204 69.2761 204.224 69.5 204.5 69.5H209.62C209.896 69.5 210.12 69.2761 210.12 69C210.12 68.7239 209.896 68.5 209.62 68.5Z" fill="#4A5166"/>
<path opacity="0.098" d="M212.5 68.5H212.06C211.784 68.5 211.56 68.7239 211.56 69C211.56 69.2761 211.784 69.5 212.06 69.5H212.5C212.776 69.5 213 69.2761 213 69C213 68.7239 212.776 68.5 212.5 68.5Z" fill="#4A5166"/>
</g>
<mask id="mask1_229_137" style="mask-type:alpha" maskUnits="userSpaceOnUse" x="40" y="246" width="328" height="9">
<path d="M43 246.5H364.953C365.749 246.5 366.512 246.816 367.074 247.379C367.637 247.941 367.953 248.704 367.953 249.5V254.102H40V249.5C40 248.704 40.3161 247.941 40.8787 247.379C41.4413 246.816 42.2044 246.5 43 246.5V246.5Z" fill="white"/>
</mask>
<g mask="url(#mask1_229_137)">
<path d="M43 246.5H364.953C365.749 246.5 366.512 246.816 367.074 247.379C367.637 247.941 367.953 248.704 367.953 249.5V254.102H40V249.5C40 248.704 40.3161 247.941 40.8787 247.379C41.4413 246.816 42.2044 246.5 43 246.5V246.5Z" fill="#52526F"/>
<path d="M220.76 227.873H187.193C181.67 227.873 177.193 232.35 177.193 237.873V241.06C177.193 246.583 181.67 251.06 187.193 251.06H220.76C226.283 251.06 230.76 246.583 230.76 241.06V237.873C230.76 232.35 226.283 227.873 220.76 227.873Z" fill="#2F2F47"/>
</g>
<path d="M40 254.5H368C368 255.296 367.684 256.059 367.121 256.621C366.559 257.184 365.796 257.5 365 257.5H43C42.2044 257.5 41.4413 257.184 40.8787 256.621C40.3161 256.059 40 255.296 40 254.5V254.5Z" fill="#393A56"/>
</g>
<defs>
<filter id="filter0_d_229_137" x="0" y="48.5" width="408" height="269" filterUnits="userSpaceOnUse" color-interpolation-filters="sRGB">
<feFlood flood-opacity="0" result="BackgroundImageFix"/>
<feColorMatrix in="SourceAlpha" type="matrix" values="0 0 0 0 0 0 0 0 0 0 0 0 0 0 0 0 0 0 127 0" result="hardAlpha"/>
<feOffset dy="20"/>
<feGaussianBlur stdDeviation="20"/>
<feColorMatrix type="matrix" values="0 0 0 0 0.421822 0 0 0 0 0.554338 0 0 0 0 0.89371 0 0 0 0.243444 0"/>
<feBlend mode="normal" in2="BackgroundImageFix" result="effect1_dropShadow_229_137"/>
<feBlend mode="normal" in="SourceGraphic" in2="effect1_dropShadow_229_137" result="shape"/>
</filter>
<linearGradient id="paint0_linear_229_137" x1="87" y1="127.399" x2="283.485" y2="258.337" gradientUnits="userSpaceOnUse">
<stop stop-color="#FF8F71"/>
<stop offset="1" stop-color="#FF3E55"/>
</linearGradient>
</defs>
</svg>
