<svg width="930" height="787" viewBox="0 0 930 787" fill="none" xmlns="http://www.w3.org/2000/svg">
<path opacity="0.5" d="M725 394.5C725 578.135 576.135 727 392.5 727C208.865 727 60 578.135 60 394.5V392.5C60 208.865 208.865 60 392.5 60C576.135 60 725 208.865 725 392.5V394.5Z" stroke="#2D2E40"/>
<path opacity="0.25" d="M784 394.5C784 610.719 608.719 786 392.5 786C176.281 786 1 610.719 1 394.5V392.5C1 176.281 176.281 1 392.5 1C608.719 1 784 176.281 784 392.5V394.5Z" stroke="#2D2E40"/>
<path opacity="0.08" d="M667.5 394.5C667.5 546.378 544.378 669.5 392.5 669.5C240.622 669.5 117.5 546.378 117.5 394.5V392.5C117.5 240.622 240.622 117.5 392.5 117.5C544.378 117.5 667.5 240.622 667.5 392.5V394.5Z" fill="#2D2E40"/>
<g filter="url(#filter0_d_229_167)">
<path d="M798.5 208.5H284.5C277.873 208.5 272.5 213.873 272.5 220.5V564.5C272.5 571.127 277.873 576.5 284.5 576.5H798.5C805.127 576.5 810.5 571.127 810.5 564.5V220.5C810.5 213.873 805.127 208.5 798.5 208.5Z" fill="#535353"/>
<path d="M797.5 211.5H285.5C279.977 211.5 275.5 215.977 275.5 221.5V563.5C275.5 569.023 279.977 573.5 285.5 573.5H797.5C803.023 573.5 807.5 569.023 807.5 563.5V221.5C807.5 215.977 803.023 211.5 797.5 211.5Z" fill="#1D1D25"/>
<mask id="mask0_229_167" style="mask-type:alpha" maskUnits="userSpaceOnUse" x="289" y="224" width="507" height="337">
<path d="M792.5 224.5H292.5C290.843 224.5 289.5 225.843 289.5 227.5V557.372C289.5 559.029 290.843 560.372 292.5 560.372H792.5C794.157 560.372 795.5 559.029 795.5 557.372V227.5C795.5 225.843 794.157 224.5 792.5 224.5Z" fill="white"/>
</mask>
<g mask="url(#mask0_229_167)">
<path d="M792.5 224.5H292.5C290.843 224.5 289.5 225.843 289.5 227.5V557.372C289.5 559.029 290.843 560.372 292.5 560.372H792.5C794.157 560.372 795.5 559.029 795.5 557.372V227.5C795.5 225.843 794.157 224.5 792.5 224.5Z" fill="url(#paint0_linear_229_167)"/>
<path d="M792.175 284.793H292.175C290.518 284.793 289.175 286.136 289.175 287.793V557.631C289.175 559.288 290.518 560.631 292.175 560.631H792.175C793.832 560.631 795.175 559.288 795.175 557.631V287.793C795.175 286.136 793.832 284.793 792.175 284.793Z" fill="#F9F6F6"/>
<path d="M464.621 261.961H363.975C362.318 261.961 360.975 263.304 360.975 264.961V515.502C360.975 517.159 362.318 518.502 363.975 518.502H464.621C466.278 518.502 467.621 517.159 467.621 515.502V264.961C467.621 263.304 466.278 261.961 464.621 261.961Z" fill="white"/>
<path d="M721.024 261.961H488.773C487.116 261.961 485.773 263.304 485.773 264.961V515.502C485.773 517.159 487.116 518.502 488.773 518.502H721.024C722.681 518.502 724.024 517.159 724.024 515.502V264.961C724.024 263.304 722.681 261.961 721.024 261.961Z" fill="white"/>
<path d="M710.814 275.582H498.984C497.327 275.582 495.984 276.925 495.984 278.582V332.744C495.984 334.401 497.327 335.744 498.984 335.744H710.814C712.471 335.744 713.814 334.401 713.814 332.744V278.582C713.814 276.925 712.471 275.582 710.814 275.582Z" fill="#E7E7E7"/>
<path d="M557.652 348.23H498.984C497.327 348.23 495.984 349.574 495.984 351.23V405.392C495.984 407.049 497.327 408.392 498.984 408.392H557.652C559.309 408.392 560.652 407.049 560.652 405.392V351.23C560.652 349.574 559.309 348.23 557.652 348.23Z" fill="#E7E7E7"/>
<path d="M710.814 348.23H579.536C577.879 348.23 576.536 349.574 576.536 351.23V405.392C576.536 407.049 577.879 408.392 579.536 408.392H710.814C712.471 408.392 713.814 407.049 713.814 405.392V351.23C713.814 349.574 712.471 348.23 710.814 348.23Z" fill="#E7E7E7"/>
</g>
<g opacity="0.098">
<path opacity="0.098" d="M551.6 192.5H541C540.172 192.5 539.5 193.172 539.5 194C539.5 194.828 540.172 195.5 541 195.5H551.6C552.428 195.5 553.1 194.828 553.1 194C553.1 193.172 552.428 192.5 551.6 192.5Z" fill="#4A5166"/>
<path opacity="0.098" d="M558 192.5H557.8C556.971 192.5 556.3 193.172 556.3 194C556.3 194.828 556.971 195.5 557.8 195.5H558C558.828 195.5 559.5 194.828 559.5 194C559.5 193.172 558.828 192.5 558 192.5Z" fill="#4A5166"/>
</g>
<mask id="mask1_229_167" style="mask-type:alpha" maskUnits="userSpaceOnUse" x="190" y="572" width="700" height="18">
<path d="M193.5 572.5H886.4C887.196 572.5 887.959 572.816 888.521 573.379C889.084 573.941 889.4 574.704 889.4 575.5V589.605H190.5V575.5C190.5 574.704 190.816 573.941 191.379 573.379C191.941 572.816 192.704 572.5 193.5 572.5V572.5Z" fill="white"/>
</mask>
<g mask="url(#mask1_229_167)">
<path d="M193.5 572.5H886.4C887.196 572.5 887.959 572.816 888.521 573.379C889.084 573.941 889.4 574.704 889.4 575.5V589.605H190.5V575.5C190.5 574.704 190.816 573.941 191.379 573.379C191.941 572.816 192.704 572.5 193.5 572.5V572.5Z" fill="#52526F"/>
<path d="M587.027 530.592H492.871C487.348 530.592 482.871 535.069 482.871 540.592V572.763C482.871 578.286 487.348 582.763 492.871 582.763H587.027C592.55 582.763 597.027 578.286 597.027 572.763V540.592C597.027 535.069 592.55 530.592 587.027 530.592Z" fill="#2F2F47"/>
</g>
<path d="M190.5 589.5H889.5C889.5 591.091 888.868 592.617 887.743 593.743C886.617 594.868 885.091 595.5 883.5 595.5H196.5C194.909 595.5 193.383 594.868 192.257 593.743C191.132 592.617 190.5 591.091 190.5 589.5V589.5Z" fill="#393A56"/>
</g>
<defs>
<filter id="filter0_d_229_167" x="150.5" y="172.5" width="779" height="483" filterUnits="userSpaceOnUse" color-interpolation-filters="sRGB">
<feFlood flood-opacity="0" result="BackgroundImageFix"/>
<feColorMatrix in="SourceAlpha" type="matrix" values="0 0 0 0 0 0 0 0 0 0 0 0 0 0 0 0 0 0 127 0" result="hardAlpha"/>
<feOffset dy="20"/>
<feGaussianBlur stdDeviation="20"/>
<feColorMatrix type="matrix" values="0 0 0 0 0.421822 0 0 0 0 0.554338 0 0 0 0 0.89371 0 0 0 0.243444 0"/>
<feBlend mode="normal" in2="BackgroundImageFix" result="effect1_dropShadow_229_167"/>
<feBlend mode="normal" in="SourceGraphic" in2="effect1_dropShadow_229_167" result="shape"/>
</filter>
<linearGradient id="paint0_linear_229_167" x1="289.5" y1="318.443" x2="708.929" y2="596.85" gradientUnits="userSpaceOnUse">
<stop stop-color="#FF8F71"/>
<stop offset="1" stop-color="#FF3E55"/>
</linearGradient>
</defs>
</svg>
