<svg width="600px" height="600px" viewBox="0 0 1015 1019" fill="none" xmlns="http://www.w3.org/2000/svg">
<path d="M801.5 510.5C801.5 672.872 669.872 804.5 507.5 804.5C345.128 804.5 213.5 672.872 213.5 510.5V508.5C213.5 346.128 345.128 214.5 507.5 214.5C669.872 214.5 801.5 346.128 801.5 508.5V510.5Z" fill="#3E4062"/>
<path opacity="0.5" d="M1014 511.5C1014 791.232 787.232 1018 507.5 1018C227.768 1018 1 791.232 1 511.5V507.5C1 227.768 227.768 1 507.5 1C787.232 1 1014 227.768 1014 507.5V511.5Z" stroke="#878D92"/>
<path d="M844 510.5C844 696.344 693.344 847 507.5 847C321.656 847 171 696.344 171 510.5V508.5C171 322.656 321.656 172 507.5 172C693.344 172 844 322.656 844 508.5V510.5Z" stroke="#878D92"/>
</svg>
