<svg id="camera-desktop-ver" width="885" height="883" viewBox="0 0 885 883" fill="none" xmlns="http://www.w3.org/2000/svg">
<path opacity="0.08" d="M745 446.5C745 612.185 610.685 746.5 445 746.5C279.315 746.5 145 612.185 145 446.5V444.5C145 278.815 279.315 144.5 445 144.5C610.685 144.5 745 278.815 745 444.5V446.5Z" fill="#2D2E40"/>
<path opacity="0.5" d="M784.5 442.5C784.5 630.001 632.501 782 445 782C257.499 782 105.5 630.001 105.5 442.5V440.5C105.5 252.999 257.499 101 445 101C632.501 101 784.5 252.999 784.5 440.5V442.5Z" stroke="#2D2E40"/>
<path opacity="0.25" d="M884.5 442.5C884.5 685.229 687.729 882 445 882C202.271 882 5.5 685.229 5.5 442.5V440.5C5.5 197.771 202.271 1 445 1C687.729 1 884.5 197.771 884.5 440.5V442.5Z" stroke="#2D2E40"/>
<mask id="mask0_234_5" style="mask-type:alpha" maskUnits="userSpaceOnUse" x="0" y="242" width="642" height="428">
<path d="M627 242.5H15C6.71573 242.5 0 249.216 0 257.5V654.5C0 662.784 6.71573 669.5 15 669.5H627C635.284 669.5 642 662.784 642 654.5V257.5C642 249.216 635.284 242.5 627 242.5Z" fill="white"/>
</mask>
<g mask="url(#mask0_234_5)">
<g filter="url(#filter0_d_234_5)">
<path d="M627 242.5H15C6.71573 242.5 0 249.216 0 257.5V654.5C0 662.784 6.71573 669.5 15 669.5H627C635.284 669.5 642 662.784 642 654.5V257.5C642 249.216 635.284 242.5 627 242.5Z" fill="black"/>
</g>
<path d="M627 242.5H15C6.71573 242.5 0 249.216 0 257.5V654.5C0 662.784 6.71573 669.5 15 669.5H627C635.284 669.5 642 662.784 642 654.5V257.5C642 249.216 635.284 242.5 627 242.5Z" fill="url(#paint0_linear_234_5)"/>
<path d="M3 367.5H639C639.796 367.5 640.559 367.816 641.121 368.379C641.684 368.941 642 369.704 642 370.5V666.5C642 667.296 641.684 668.059 641.121 668.621C640.559 669.184 639.796 669.5 639 669.5H3C2.20435 669.5 1.44129 669.184 0.87868 668.621C0.31607 668.059 0 667.296 0 666.5L0 370.5C0 369.704 0.31607 368.941 0.87868 368.379C1.44129 367.816 2.20435 367.5 3 367.5V367.5Z" fill="#2D2E40"/>
<g class="camera-lense">
    <path d="M223.308 290.209H93.5229C91.8661 290.209 90.5229 291.552 90.5229 293.209V424.374C90.5229 426.031 91.8661 427.374 93.5229 427.374H223.308C224.965 427.374 226.308 426.031 226.308 424.374V293.209C226.308 291.552 224.965 290.209 223.308 290.209Z" fill="white"/>
    <path d="M158.416 398.748C180.124 398.748 197.722 381.126 197.722 359.388C197.722 337.65 180.124 320.028 158.416 320.028C136.708 320.028 119.11 337.65 119.11 359.388C119.11 381.126 136.708 398.748 158.416 398.748Z" fill="#2D2E40"/>
</g>
<path d="M548.477 290.209H251.939C250.282 290.209 248.939 291.552 248.939 293.209V612.826C248.939 614.483 250.282 615.826 251.939 615.826H548.477C550.134 615.826 551.477 614.483 551.477 612.826V293.209C551.477 291.552 550.134 290.209 548.477 290.209Z" fill="white"/>
</g>
<path d="M209 526.5C256.125 453.133 290.977 413.487 313.557 407.562C347.427 398.676 337.322 490.702 386.092 480.035C434.862 469.369 440.808 376.061 477.695 371.665C514.582 367.268 534.097 452.611 550.21 460.475C560.952 465.716 574.215 454.381 590 426.468" stroke="url(#paint1_linear_234_5)" stroke-width="8" stroke-linecap="round"/>
<defs>
<filter id="filter0_d_234_5" x="-40" y="222.5" width="722" height="507" filterUnits="userSpaceOnUse" color-interpolation-filters="sRGB">
<feFlood flood-opacity="0" result="BackgroundImageFix"/>
<feColorMatrix in="SourceAlpha" type="matrix" values="0 0 0 0 0 0 0 0 0 0 0 0 0 0 0 0 0 0 127 0" result="hardAlpha"/>
<feOffset dy="20"/>
<feGaussianBlur stdDeviation="20"/>
<feColorMatrix type="matrix" values="0 0 0 0 0.421822 0 0 0 0 0.554338 0 0 0 0 0.89371 0 0 0 0.243444 0"/>
<feBlend mode="normal" in2="BackgroundImageFix" result="effect1_dropShadow_234_5"/>
<feBlend mode="normal" in="SourceGraphic" in2="effect1_dropShadow_234_5" result="shape"/>
</filter>
<linearGradient id="paint0_linear_234_5" x1="-3.44405e-06" y1="361.552" x2="532.2" y2="715.531" gradientUnits="userSpaceOnUse">
<stop stop-color="#FF8F71"/>
<stop offset="1" stop-color="#FF3E55"/>
</linearGradient>
<linearGradient id="paint1_linear_234_5" x1="209" y1="436.174" x2="544.853" y2="572.804" gradientUnits="userSpaceOnUse">
<stop stop-color="#FF8F71"/>
<stop offset="1" stop-color="#FF3E55"/>
</linearGradient>
</defs>
</svg>
